<svg xmlns="http://www.w3.org/2000/svg" version="1.1" xmlns:xlink="http://www.w3.org/1999/xlink" xmlns:svgjs="http://svgjs.dev/svgjs" width="100%" height="100%" viewBox="0 0 1000 600"><rect width="1000" height="600" x="0" y="0" fill="#00000"/><g><circle r="166.66666666666666" cx="433.27298990885413" cy="455.4952045344288" fill="#a9abbc" transform="matrix(0.46885609643417536,0,0,0.46885609643417536,0,86.43829073329697)"/><path d="M382.1237323027424 517.1907280517373L351.70188332376364 530.4952166718774Q342.77814095659653 514.351355480366 334.8819810438305 497.61257813104345Q326.9858211310644 480.8738007817209 319.7116190196464 463.9186902841034Q312.43741690822833 446.93653814294896 305.48771451925273 429.7380528534996Q298.565053773814 412.51252592051344 291.6153513848384 395.3140406310641L291.6153513848384 395.3140406310641L329.6359021976777 380.49521997285933Q340.8581842654787 415.46006506603226 353.83817316317635 449.7488690707835Q366.818162060874 484.0106314319978 382.1237323027424 517.1907280517373L382.1237323027424 517.1907280517373ZM488.4244330461786 446.2604970545272L488.4244330461786 446.2604970545272Q488.4244330461786 454.53523997680946 487.2616423740931 462.8099828990917L487.2616423740931 462.8099828990917Q471.0096146084343 463.8646069970296 454.9468783475334 466.19018834120044Q438.88414208663266 468.51576968537125 422.82140582573186 470.7872677424684L422.82140582573186 470.7872677424684Q425.28219538758697 477.65584520083337 430.55531587727666 481.73913337490075Q435.82843636696634 485.8224215489681 443.1567217654581 485.8224215489681L443.1567217654581 485.8224215489681Q446.9695935041568 485.8224215489681 451.4855479748141 484.38921444151396Q456.0015024454714 482.95600733405985 460.4633736290549 480.81971749464714Q464.9252448126384 478.6834276552344 469.00853298670586 476.2226380933792Q473.1188628043101 473.7348068879872 476.03936030629205 471.7607669097957L476.03936030629205 471.7607669097957L471.49636419209793 514.9192299946403Q467.7916590275467 517.7586025660116 463.4649960616475 519.75968418774Q459.1383330957483 521.7607658094685 454.46012876386976 522.9776397686276Q449.80896607552813 524.2215553713236 445.049636813039 524.7894298855979Q440.3173491940868 525.3573043998722 435.74731143635574 525.3573043998722L435.74731143635574 525.3573043998722Q426.3368194855249 525.3573043998722 418.5488261469063 522.7883482638695Q410.7337911647509 520.2464337714036 404.40604657712333 515.6223127265989Q398.1053436330326 511.025233325331 393.3460143705435 504.72453038124024Q388.5866851080543 498.4508690806864 385.4498544577774 491.041458751584Q382.3130238075005 483.6320484224816 380.69052519528833 475.3573055001994Q379.09506822661297 467.08256257791714 379.09506822661297 458.61852815087684L379.09506822661297 458.61852815087684Q379.09506822661297 449.77591071432033 380.69052519528833 440.9332932777638Q382.3130238075005 432.1177174847442 385.58506267546176 423.92409949307256Q388.88414318695993 415.7575231449378 393.859805597744 408.7537374688885Q398.862509652065 401.776993436376 405.51475396213505 396.5579562337601Q412.16699827220503 391.3118773876073 420.57694941217164 388.3643382420885Q428.9869005521382 385.41679909656966 439.15455852200137 385.41679909656966L439.15455852200137 385.41679909656966Q447.61859294904167 385.41679909656966 454.62237862509096 387.7694220842773Q461.5991226576035 390.09500342844814 467.06153465205125 394.23237488958927Q472.523946646499 398.34270470719355 476.58019317702946 404.0484914934731Q480.60939806402314 409.75427827975267 483.2324374870995 416.5687724510439Q485.85547691017587 423.3562249787983 487.1264341564088 430.9278851691219Q488.4244330461786 438.47250371590866 488.4244330461786 446.2604970545272ZM450.37684058980244 443.4211244831559L450.37684058980244 441.3389179308169Q450.37684058980244 438.66179522066676 449.80896607552813 435.8494642928323Q449.2410915612538 433.0641750085347 447.97013431502097 430.7656353079007Q446.6721354252512 428.49413725080365 444.5899288729122 427.0068468562758Q442.48068067703633 425.5465981052848 439.3438500267594 425.5465981052848L439.3438500267594 425.5465981052848Q435.55801993159764 425.5465981052848 432.6645640731525 427.6017630140869Q429.7440665711706 429.62988627935215 427.6618600188316 432.7126336425553Q425.5796534664926 435.8224226492954 424.22757128964906 439.4189612396991Q422.90253075634246 443.0425414736397 422.25353131145755 446.07120554976916L422.25353131145755 446.07120554976916L450.37684058980244 443.4211244831559ZM544.5088017416471 380.49521997285933L574.9306507206259 393.7997085929993Q559.6250804787574 426.9798052127389 546.6450915810597 461.2415675739532Q533.6651026833621 495.5033299351676 522.442820615561 530.4952166718774L522.442820615561 530.4952166718774L484.4222698027218 515.6763960136726Q491.3719721916974 498.4508690806864 498.2946329371361 481.3064670783108Q505.2443353261117 464.1350234323983 512.5185374375297 447.1799129347808Q519.7927395489478 430.1977607936264 527.6618578181769 413.4589834443039Q535.558017730943 396.7472477385182 544.5088017416471 380.49521997285933L544.5088017416471 380.49521997285933Z " fill="#f7f4f6" transform="matrix(0.46885609643417536,0,0,0.46885609643417536,0,86.43829073329697)"/><path d="M797.8272051883303 447.6183731062265L797.8272051883303 447.6183731062265Q797.8272051883303 456.28856600208405 796.6371787124283 464.95875889794155L796.6371787124283 464.95875889794155Q779.5801325578327 466.0637834827077 762.7497581129328 468.50050436193567Q745.9193836680329 470.9372252411636 729.089009223133 473.31727819296765L729.089009223133 473.31727819296765Q731.6673999209206 480.5141049758036 737.1925228447515 484.7925334963085Q742.7459797322941 489.0709620168133 750.3961499345214 489.0709620168133L750.3961499345214 489.0709620168133Q754.3912388179067 489.0709620168133 759.1230107578028 487.56926194007985Q763.854782697699 486.0675618633463 768.5298867101711 483.8291787301021Q773.2049907226433 481.59079559685784 777.5117532068601 479.01240489907013Q781.790181727365 476.4056802375705 784.8785837719679 474.3373008865979L784.8785837719679 474.3373008865979L780.0901439046479 519.5583069708745Q776.2083908761103 522.5333731606295 771.674956682198 524.6300864753141Q767.1415224882854 526.7267997899985 762.2680807298295 528.0018281570365Q757.3663050076618 529.3051904877861 752.40786135807 529.9002037257372Q747.4210837447663 530.4952169636883 742.6326438774463 530.4952169636883L742.6326438774463 530.4952169636883Q732.7724245056868 530.4952169636883 724.6122429566444 527.8034904110527Q716.42372744389 525.1400978221292 709.821913899005 520.2949900273852Q703.1917663904081 515.4782161963533 698.2049887771044 508.8764026514683Q693.2182111638008 502.30292307029526 689.9314713732142 494.5394170132202Q686.6447315826277 486.7759109561452 684.9730277236225 478.10571806028764Q683.2729899009053 469.4355251644301 683.2729899009053 460.5669945225889L683.2729899009053 460.5669945225889Q683.2729899009053 451.3017883887804 684.9730277236225 442.0365822549718Q686.6447315826277 432.79971008487524 690.101475155486 424.21451908015354Q693.5298847646322 415.6576620391438 698.7433340876315 408.31916543774804Q703.9851173743427 401.00900280006425 710.9552724474831 395.5405478036574Q717.9254275206235 390.04375884353857 726.7372902350409 386.95535679893567Q735.5491529494582 383.8669547543328 746.2310572688643 383.8669547543328L746.2310572688643 383.8669547543328Q755.0995879107055 383.8669547543328 762.4097505483893 386.33200959727276Q769.7199131860732 388.76873047650065 775.4433738558876 393.1038269244294Q781.195168489414 397.4105894086463 785.4169290824949 403.3890557518683Q789.638689675576 409.3675220950903 792.3870841556353 416.5076809505024Q795.1354786356948 423.6195058422025 796.4671749301565 431.5530156815493Q797.8272051883303 439.45819155718414 797.8272051883303 447.6183731062265ZM757.9613182456128 444.64330691647143L757.9613182456128 442.46159171065113Q757.9613182456128 439.65652930316776 757.3663050076618 436.70979707712473Q756.7712917697107 433.7913988147936 755.439595475249 431.38301189927756Q754.0795652170752 429.0029589474736 751.8978500112548 427.44459094331614Q749.7161348054345 425.9145569028707 746.4293950148481 425.9145569028707L746.4293950148481 425.9145569028707Q742.4343061314627 425.9145569028707 739.4025720142837 428.0679381449791Q736.3708378971048 430.19298542337555 734.1607887275725 433.42305728653815Q731.9790735217521 436.68146311341275 730.5907092998664 440.4498802871025Q729.1740111142688 444.24663142450413 728.493995985182 447.4200353602428L728.493995985182 447.4200353602428L757.9613182456128 444.64330691647143ZM801.000609124069 385.8786661778815L909.5763580682718 385.6803284318978L908.5846693383535 427.8979343627074L878.890675368227 429.0879608386094L871.3255070571356 523.5250618905479L829.3062388723097 525.7351110600803L829.5045766182934 431.2980100081417L799.8105826481669 432.8847119760111L801.000609124069 385.8786661778815ZM917.5665358350425 384.46196799228386L1009.3969122254814 384.46196799228386Q1008.8018989875303 393.8405099809402 1008.2918876407152 402.992380259901Q1007.810210257612 412.1725845025736 1007.0168592736773 421.52279252751805L1007.0168592736773 421.52279252751805L964.7709193791558 423.73284169705033L964.7709193791558 436.28478762144545L1001.4350684224225 436.28478762144545L999.4233569988739 467.14047410376196L964.5725816331721 468.1604967973922L964.7709193791558 527.123475281966L914.3647979355919 528.1151640118842L917.5665358350425 384.46196799228386ZM1116.4709610929508 475.13065187053263L1116.4709610929508 475.13065187053263Q1116.4709610929508 488.75928841598187 1111.7391891530547 498.9878493159968Q1107.0074172131585 509.1880762522998 1098.790567736692 515.9598935794565Q1090.5737182602259 522.7317109066132 1079.5801403399882 526.1317865520475Q1068.5582284560387 529.5035282337699 1055.9212806405078 529.5035282337699L1055.9212806405078 529.5035282337699Q1051.0195049183399 529.5035282337699 1045.2110423573895 528.228499866732Q1039.3742458327274 526.9251375359822 1033.3957794895055 524.9700940398575Q1027.4173131462833 523.0433845074447 1021.8921902224524 520.8050013742004Q1016.3670672986217 518.5382842772442 1012.0886387781169 516.5549068174075L1012.0886387781169 516.5549068174075L1016.4804031534695 475.52732736249993Q1024.9239243396314 480.5991068669395 1035.2374871307823 483.2341654921511Q1045.551049921933 485.8692241173627 1055.5246051485403 485.8692241173627L1055.5246051485403 485.8692241173627Q1057.3946467535293 485.8692241173627 1060.086373306165 485.72755429880294Q1062.7780998588003 485.5858844802432 1065.2148207380283 484.82086746002045Q1067.6798755809682 484.08418440350965 1069.3515794399732 482.5824843267762Q1071.0516172626906 481.1091182137546 1071.0516172626906 478.3040558062713L1071.0516172626906 478.3040558062713Q1071.0516172626906 476.4056802375705 1069.8615907867884 475.0739839431087Q1068.6715643108864 473.71395368493495 1066.7731887421855 472.89226873728836Q1064.8748131734847 472.0422498259298 1062.4947602216807 471.5889064065385Q1060.086373306165 471.13556298714724 1057.8196562092085 470.9372252411636Q1055.5246051485403 470.73888749517994 1053.5128937249917 470.73888749517994Q1051.529516265155 470.73888749517994 1050.339489789253 470.73888749517994L1050.339489789253 470.73888749517994Q1041.7826327482433 470.73888749517994 1034.755809747679 467.76382130542487Q1027.7289867471147 464.7604211519579 1022.6855412063871 459.4336359741108Q1017.6704296293715 454.1068507962637 1014.8653672218882 446.7683541948679Q1012.0886387781169 439.45819155718414 1012.0886387781169 430.90133451617436L1012.0886387781169 430.90133451617436Q1012.0886387781169 419.142739575714 1016.8204107180129 409.82086551448157Q1021.552182657909 400.4989914532491 1029.4573585335438 393.98217979949993Q1037.3908683728905 387.46536814575086 1047.6477632366175 383.98029060918066Q1057.9046581003445 380.49521307261045 1068.8699020568702 380.49521307261045L1068.8699020568702 380.49521307261045Q1073.743343815326 380.49521307261045 1078.9284591746134 380.83522063715395Q1084.1135745339006 381.17522820169734 1089.2420219657643 382.0819150404798Q1094.3704693976276 382.9886018792623 1099.2439111560834 384.376966101148Q1104.1173529145394 385.7653303230337 1108.509117289892 387.8620436377182L1108.509117289892 387.8620436377182L1104.7123661524904 428.2946098546748Q1097.9405488253337 425.9995587940066 1090.517050332802 424.46952475356113Q1083.0935518402705 422.9111567494037 1076.038394875994 422.9111567494037L1076.038394875994 422.9111567494037Q1074.7350325452444 422.9111567494037 1072.6949871579836 422.9678246768276Q1070.654941770723 423.0244926042515 1068.4165586374788 423.2794982776591Q1066.1781755042346 423.5345039510667 1063.8831244435664 424.01618133416986Q1061.5880733828983 424.526192680985 1059.8030336690454 425.3762115923436Q1058.0179939551922 426.2262305037022 1056.912969370426 427.6145947255879Q1055.8079447856599 429.0029589474736 1055.9212806405078 430.90133451617436L1055.9212806405078 430.90133451617436Q1056.0062825316436 433.08304972199477 1057.5646505358009 434.4430799801685Q1059.0946845762464 435.77477627463026 1061.5314054554742 436.51145933114105Q1063.9681263347024 437.2764763513637 1066.9148585607454 437.5598159884833Q1069.8615907867884 437.87148958931476 1072.7516550854077 437.9281575167387Q1075.6417193840268 437.9564914804506 1078.1351081906787 437.9281575167387Q1080.6284969973306 437.87148958931476 1082.2151989651998 438.06982733529844L1082.2151989651998 438.06982733529844Q1090.1770427682586 438.55150471840165 1096.552184603448 441.4415690170208Q1102.9273264386375 444.33163331564 1107.3757587414138 449.12007318295997Q1111.7958570804785 453.90851305028 1114.1475760685705 460.538660558877Q1116.4709610929508 467.14047410376196 1116.4709610929508 475.13065187053263ZM1125.254489843656 384.46196799228386L1217.084866234095 384.46196799228386Q1216.4898529961438 393.8405099809402 1215.9798416493288 402.992380259901Q1215.4981642662256 412.1725845025736 1214.7048132822908 421.52279252751805L1214.7048132822908 421.52279252751805L1172.4588733877695 423.73284169705033L1171.467184657851 436.28478762144545L1201.1611786279773 436.28478762144545L1198.9511294584452 467.14047410376196L1169.0587977423352 468.1604967973922L1168.0671090124165 482.695820181624L1192.7743253692395 482.695820181624L1210.313048906938 482.695820181624Q1209.7180356689873 493.6610641381497 1209.0663545036123 504.4563043124037Q1208.4146733382372 515.2515444866576 1207.9329959551342 526.1317865520475L1207.9329959551342 526.1317865520475L1122.0527519442053 528.1151640118842L1125.254489843656 384.46196799228386ZM1308.0368897494632 471.333900733131L1308.0368897494632 471.333900733131L1303.8434631200942 515.5632180874891L1219.974930532714 522.1366976686622Q1220.569943770665 487.3709241940962 1221.306626827176 453.00182621149753Q1222.0716438473985 418.6327282288989 1223.1483344684527 383.8669547543328L1223.1483344684527 383.8669547543328L1274.9711540976143 383.8669547543328Q1272.6761030369462 405.68410681253647 1270.5793897222616 427.44459094331614Q1268.482676407577 449.2334090378078 1267.5759895687947 471.333900733131L1267.5759895687947 471.333900733131Q1272.2794275449787 471.5322384791146 1276.8411957026033 471.5322384791146Q1281.4312978239395 471.5322384791146 1286.1064018364118 471.5322384791146L1286.1064018364118 471.5322384791146Q1291.6881926876665 471.5322384791146 1297.0716457929375 471.44723658797875Q1302.4550988982085 471.333900733131 1308.0368897494632 471.333900733131ZM1315.2053825685873 384.46196799228386L1407.0357589590262 384.46196799228386Q1406.440745721075 393.8405099809402 1405.959068337972 402.992380259901Q1405.4490569911566 412.1725845025736 1404.655706007222 421.52279252751805L1404.655706007222 421.52279252751805L1362.4097661127005 423.73284169705033L1361.418077382782 436.28478762144545L1391.1120713529085 436.28478762144545L1388.9020221833762 467.14047410376196L1359.038024430978 468.1604967973922L1358.04633570106 482.695820181624L1382.7252180941705 482.695820181624L1400.2639416318693 482.695820181624Q1399.6689283939181 493.6610641381497 1399.0172472285435 504.4563043124037Q1398.3655660631684 515.2515444866576 1397.8838886800654 526.1317865520475L1397.8838886800654 526.1317865520475L1312.0036446691365 528.1151640118842L1315.2053825685873 384.46196799228386ZM1506.2612998782845 388.06038138370184L1506.2612998782845 388.06038138370184L1500.6795090270298 430.1079835322397Q1497.7894447284107 429.28629858459306 1494.8993804297916 429.0029589474736Q1492.0093161311722 428.6912853466421 1489.119251832553 428.6912853466421L1489.119251832553 428.6912853466421Q1481.7524212674455 428.6912853466421 1475.0656058314246 430.6463288427668Q1468.4071243591156 432.60137233889157 1463.278676927252 436.5681272585649Q1458.1502294953887 440.56321614195025 1455.11849537821 446.5416824851723Q1452.058427297319 452.5201488283943 1452.058427297319 460.5669945225889L1452.058427297319 460.5669945225889Q1452.058427297319 465.75210988187627 1453.701797192612 469.5488610192779Q1455.3451670879053 473.31727819296765 1458.3485672413724 475.81066699961946Q1461.3236334311275 478.3040558062713 1465.4037242056488 479.49408228217334Q1469.5121489438818 480.7124427217873 1474.3855907023376 480.7124427217873L1474.3855907023376 480.7124427217873Q1478.0690059848916 480.7124427217873 1482.0640948682767 479.8907577741407Q1486.0308497879503 479.097406790206 1489.9126028164878 477.8223784231681Q1493.7943558450254 476.5190160924183 1497.4777711275792 474.8189782697011Q1501.189520373845 473.11894044698397 1504.2779224184478 471.333900733131L1504.2779224184478 471.333900733131L1500.2828335350623 518.1416087852768Q1496.401080506525 520.1533202088256 1491.8676463126126 521.6833542492709Q1487.3342121187002 523.2417222534284 1482.5457722513802 524.3750808019065Q1477.7573323840602 525.5367733140965 1472.997226480452 526.1317865520475Q1468.208786613132 526.7267997899985 1463.8170222377794 526.7267997899985L1463.8170222377794 526.7267997899985Q1451.1800744222485 526.7267997899985 1440.2148304657226 522.0516957775263Q1429.249586509197 517.3482578013422 1421.2027408150025 509.1880762522998Q1413.127561157096 501.0278947032574 1408.4807911083358 489.9209809281719Q1403.8623550232874 478.81406715308646 1403.8623550232874 465.9504476278599L1403.8623550232874 465.9504476278599Q1403.8623550232874 448.92173543697635 1408.7357967817434 433.8197327785055Q1413.6092385401992 418.74606408374666 1423.0727824199912 407.3841446352536Q1432.5363262997835 396.0222251867606 1446.5333043734881 389.44874560558753Q1460.5302824471928 382.8752660244145 1478.7773550776906 382.8752660244145L1478.7773550776906 382.8752660244145Q1485.6341742959828 382.8752660244145 1492.8593350425308 383.98029060918066Q1500.0844957890788 385.0853151939468 1506.2612998782845 388.06038138370184ZM1509.2363660680394 385.8786661778815L1617.8121150122424 385.6803284318978L1616.820426282324 427.8979343627074L1587.1547662759097 429.0879608386094L1579.5612640011063 523.5250618905479L1537.5419958162802 525.7351110600803L1537.740333562264 431.2980100081417L1508.0463395921374 432.8847119760111L1509.2363660680394 385.8786661778815ZM1742.5382232722586 457.7902660788175L1742.5382232722586 457.7902660788175Q1742.5382232722586 466.85713446664244 1740.441509957574 475.2723216890924Q1738.3447966428894 483.68750891154235 1734.4063756869277 491.05433947665006Q1730.4962886946782 498.42117004175776 1724.857829916 504.5696401672515Q1719.2193711373216 510.6897763290333 1712.192548136757 515.053206740674Q1705.1940590999047 519.4449711160266 1696.9205416960144 521.8816919952546Q1688.6470242921243 524.3184128744825 1679.3818181583158 524.3184128744825L1679.3818181583158 524.3184128744825Q1670.4282856253385 524.3184128744825 1662.296438040008 522.0516957775263Q1654.1929244183898 519.7566447168581 1647.1094334904014 515.6198860149132Q1640.0259425624133 511.48312731296795 1634.302481892599 505.6463307883057Q1628.5790212227846 499.8378682273554 1624.5555983756872 492.6977093719433Q1620.5038415648778 485.5858844802432 1618.2654584316338 477.42570293120076Q1616.0270752983895 469.23718741844647 1616.0270752983895 460.36865677660523L1616.0270752983895 460.36865677660523Q1616.0270752983895 451.72679784445967 1618.1237886130739 443.39661251314556Q1620.2205019277583 435.06642718183144 1624.15892288372 427.69959661672374Q1628.0690098759692 420.33276605161603 1633.650800727224 414.15596196241034Q1639.2325915784786 407.9791578732046 1646.174412687907 403.5023916067161Q1653.0878998336236 399.0256253402275 1661.1630794915302 396.5322365335757Q1669.2099251857248 394.0388477269239 1678.1917916824136 394.0388477269239L1678.1917916824136 394.0388477269239Q1692.6421131755096 394.0388477269239 1704.54237793453 398.5156139934124Q1716.4426426935502 402.992380259901 1724.857829916 411.32256559121504Q1733.27301713845 419.6244169588172 1737.891453223498 431.4396798267015Q1742.5382232722586 443.2549426945858 1742.5382232722586 457.7902660788175ZM1698.3089059179001 460.36865677660523L1698.3089059179001 460.36865677660523Q1698.3089059179001 456.0902282561004 1697.0622115145743 452.06680540900305Q1695.8155171112483 448.01504859819386 1693.4354641594443 444.898312589879Q1691.0270772439283 441.75324261785227 1687.513665743646 439.7981991217275Q1683.9719202796518 437.87148958931476 1679.3818181583158 437.87148958931476L1679.3818181583158 437.87148958931476Q1674.7067141458435 437.87148958931476 1671.0232988632897 439.5715274120319Q1667.339883580736 441.24323127103713 1664.6764909918124 444.1899634970802Q1662.041432366601 447.1366957231233 1660.653068144715 451.0751166790847Q1659.2647039228293 455.01353763504613 1659.2647039228293 459.3769680466869L1659.2647039228293 459.3769680466869Q1659.2647039228293 463.5703946760559 1660.4547303987313 467.76382130542487Q1661.6447568746332 471.92891397108195 1664.0531437901493 475.3289896165163Q1666.4331967419532 478.7007312982386 1669.9749422059474 480.79744461292313Q1673.5166876699413 482.89415792760764 1678.1917916824136 482.89415792760764L1678.1917916824136 482.89415792760764Q1682.866895694886 482.89415792760764 1686.6069789048636 481.0524502863307Q1690.3470621148415 479.2107426450538 1692.925452812629 476.065672673027Q1695.532177474129 472.9206027010003 1696.9205416960144 468.8405119264791Q1698.3089059179001 464.7604211519579 1698.3089059179001 460.36865677660523ZM1866.244308838644 432.09136099207643L1866.244308838644 432.09136099207643Q1866.244308838644 439.85486704915144 1864.9126125441821 446.1733409569169Q1863.5525822860086 452.5201488283943 1860.6625179873895 457.7902660788175Q1857.800787652482 463.0603833292407 1853.2106855311458 467.53714959572926Q1848.6205834098096 472.0422498259298 1842.1604396834841 476.12234060045097L1842.1604396834841 476.12234060045097L1865.847633346677 518.3399465312605L1821.0233027543673 527.123475281966L1805.6946283862012 484.6791976414607L1793.3410202077898 485.07587313342805L1791.5559804939367 526.5284620440149L1748.7150273614639 526.5284620440149Q1749.1967047445673 503.8046231470288 1749.6500481639587 481.3074559597383Q1750.10339158335 458.78195480873586 1750.6984048213008 436.08644987546177L1750.6984048213008 436.08644987546177Q1750.8967425672845 424.6111945721209 1751.0950803132682 413.36261097847563Q1751.293418059252 402.1140273848304 1751.8884312972027 390.63877208148955L1751.8884312972027 390.63877208148955Q1758.858586370343 388.06038138370184 1765.658737661212 386.3603435609847Q1772.4305549883684 384.66030573826754 1779.230706279237 383.72528493577306Q1786.0591915338177 382.79026413327864 1793.0860145343822 382.42192260502327Q1800.1128375349463 382.0819150404798 1807.479668100054 382.0819150404798L1807.479668100054 382.0819150404798Q1818.841587548547 382.0819150404798 1829.4384899768174 385.2269850125066Q1840.0637263687995 388.3720549845333 1848.223907917842 394.6338609648749Q1856.3840894668842 400.9240009089284 1861.3141991527646 410.2742089338728Q1866.244308838644 419.6244169588172 1866.244308838644 432.09136099207643ZM1821.6183159923185 435.2647649278151L1821.6183159923185 435.2647649278151Q1821.6183159923185 431.09967226215804 1820.4849574438404 427.6145947255879Q1819.3232649316506 424.1295171890177 1817.084881798406 421.57946045494197Q1814.846498665162 419.0294037208662 1811.5030909471516 417.58437157155663Q1808.1880171928528 416.139339422247 1803.7112509263643 416.139339422247L1803.7112509263643 416.139339422247Q1801.6995395028157 416.139339422247 1799.8011639341148 416.3943450956546Q1797.931122329126 416.64935076906215 1796.1177486515612 417.15936211587734L1796.1177486515612 417.15936211587734L1794.5310466836918 454.19185268739955L1796.9110996354957 454.19185268739955Q1801.2178621197127 454.19185268739955 1805.6379604587773 453.11516206634536Q1810.0863927615537 452.0101374815792 1813.5998042618357 449.715086420911Q1817.14154972583 447.4200353602428 1819.3799328590744 443.8499559325368Q1821.6183159923185 440.2515425411188 1821.6183159923185 435.2647649278151Z " fill="#a9abbc" transform="matrix(0.46885609643417536,0,0,0.46885609643417536,0,86.43829073329697)"/></g></svg>